<svg width="65" height="64" viewBox="0 0 65 64" fill="none" xmlns="http://www.w3.org/2000/svg">
<rect x="0.492188" width="64" height="64" rx="32" fill="#111111"/>
<g clip-path="url(#clip0_1608_3690)">
<path d="M37.8283 18.4251H35.4869C35.1948 18.4161 34.9437 18.2152 34.8708 17.9322C34.6489 16.7795 33.6204 15.9602 32.4473 16.0016C31.2671 15.9809 30.2437 16.8136 30.0238 17.9733C29.9479 18.2485 29.6929 18.4355 29.4077 18.4252H27.1484V22.5328H37.8283V18.4251Z" fill="#FDD92A"/>
<path d="M44.4029 46.1106V22.5738C44.4054 21.6437 43.6533 20.8877 42.7232 20.8852C42.6806 20.8851 42.638 20.8866 42.5955 20.8896H39.0629V22.9845C39.0629 23.3132 38.8575 23.765 38.5289 23.765H26.4114C26.0827 23.765 25.9185 23.3132 25.9185 22.9845V20.8897H22.3859C21.4583 20.8216 20.6511 21.5185 20.5831 22.4461C20.5799 22.4887 20.5784 22.5313 20.5786 22.5739V46.1106C20.5556 47.1312 21.3644 47.9772 22.385 48.0001C22.3854 48.0001 22.3857 48.0001 22.386 48.0001H42.5956C43.6162 47.9777 44.4253 47.1321 44.4029 46.1115C44.4029 46.1112 44.4029 46.1109 44.4029 46.1106ZM29.1635 40.6885L25.9595 43.6871C25.8571 43.8097 25.7083 43.884 25.5488 43.8925C25.3772 43.8857 25.215 43.8119 25.097 43.6871L23.4129 41.9619C23.189 41.7112 23.2074 41.3275 23.4539 41.0993C23.6935 40.8645 24.0769 40.8645 24.3165 41.0993L25.5487 42.4137L28.342 39.7848C28.622 39.5916 29.0058 39.6618 29.199 39.9419C29.3568 40.1704 29.3421 40.4761 29.1635 40.6885ZM29.1635 34.1163L25.9595 37.1149C25.8571 37.2374 25.7083 37.3118 25.5488 37.3202C25.3772 37.3135 25.215 37.2397 25.097 37.1149L23.4129 35.3896C23.189 35.139 23.2074 34.7552 23.4539 34.5271C23.6935 34.2922 24.0769 34.2922 24.3165 34.5271L25.5487 35.8415L28.342 33.2126C28.622 33.0193 29.0058 33.0896 29.199 33.3697C29.3568 33.5981 29.3421 33.9038 29.1635 34.1163ZM29.1635 27.544L25.9595 30.5426C25.8571 30.6652 25.7083 30.7396 25.5488 30.748C25.3772 30.7412 25.215 30.6675 25.097 30.5426L23.4129 28.8174C23.189 28.5668 23.2074 28.183 23.4539 27.9548C23.6935 27.72 24.0769 27.72 24.3165 27.9548L25.5487 29.2693L28.342 26.6403C28.622 26.4471 29.0058 26.5174 29.199 26.7974C29.3568 27.0259 29.3421 27.3316 29.1635 27.544ZM41.1167 43.0709H31.6691C31.3288 43.0709 31.053 42.795 31.053 42.4548C31.053 42.1145 31.3288 41.8386 31.6691 41.8386H41.1167C41.4569 41.8386 41.7328 42.1145 41.7328 42.4548C41.7328 42.795 41.457 43.0709 41.1167 43.0709ZM41.1167 36.4987H31.6691C31.3288 36.4987 31.053 36.2228 31.053 35.8825C31.053 35.5423 31.3288 35.2664 31.6691 35.2664H41.1167C41.4569 35.2664 41.7328 35.5423 41.7328 35.8825C41.7328 36.2228 41.457 36.4987 41.1167 36.4987ZM41.1167 29.9265H31.6691C31.3288 29.9265 31.053 29.6506 31.053 29.3103C31.053 28.97 31.3288 28.6941 31.6691 28.6941H41.1167C41.4569 28.6941 41.7328 28.97 41.7328 29.3103C41.7328 29.6507 41.457 29.9265 41.1167 29.9265Z" fill="#FDD92A"/>
</g>
<defs>
<clipPath id="clip0_1608_3690">
<rect width="32" height="32" fill="white" transform="translate(16.4922 16)"/>
</clipPath>
</defs>
</svg>
