<svg width="20" height="20" viewBox="0 0 20 20" fill="none" xmlns="http://www.w3.org/2000/svg">
<path d="M8.07969 11.0395C8.01969 11.0395 6.69969 11.0395 6.09969 11.0395C5.77969 11.0395 5.67969 10.9195 5.67969 10.6195C5.67969 9.81953 5.67969 8.99953 5.67969 8.19953C5.67969 7.87953 5.79969 7.77953 6.09969 7.77953H8.07969C8.07969 7.71953 8.07969 6.55953 8.07969 6.01953C8.07969 5.21953 8.21969 4.45953 8.61969 3.75953C9.03969 3.03953 9.63969 2.55953 10.3997 2.27953C10.8997 2.09953 11.3997 2.01953 11.9397 2.01953H13.8997C14.1797 2.01953 14.2997 2.13953 14.2997 2.41953V4.69953C14.2997 4.97953 14.1797 5.09953 13.8997 5.09953C13.3597 5.09953 12.8197 5.09953 12.2797 5.11953C11.7397 5.11953 11.4597 5.37953 11.4597 5.93953C11.4397 6.53953 11.4597 7.11953 11.4597 7.73953H13.7797C14.0997 7.73953 14.2197 7.85953 14.2197 8.17953V10.5995C14.2197 10.9195 14.1197 11.0195 13.7797 11.0195C13.0597 11.0195 11.5197 11.0195 11.4597 11.0195V17.5395C11.4597 17.8795 11.3597 17.9995 10.9997 17.9995C10.1597 17.9995 9.33969 17.9995 8.49969 17.9995C8.19969 17.9995 8.07969 17.8795 8.07969 17.5795C8.07969 15.4795 8.07969 11.0995 8.07969 11.0395Z" fill="#EEEEEE"/>
</svg>
