<svg width="20" height="20" viewBox="0 0 20 20" fill="none" xmlns="http://www.w3.org/2000/svg">
<g clip-path="url(#clip0_471_11926)">
<path d="M17.9805 5.04C17.3805 5.3 16.7605 5.48 16.1005 5.56C16.7805 5.16 17.3005 4.52 17.5405 3.74C16.9005 4.12 16.2005 4.38 15.4605 4.54C14.8605 3.9 14.0005 3.5 13.0605 3.5C11.2405 3.5 9.78047 4.98 9.78047 6.78C9.78047 7.04 9.80047 7.28 9.86047 7.52C7.14047 7.4 4.74047 6.08 3.12047 4.1C1.96047 6.18 3.26047 7.9 4.12047 8.48C3.60047 8.48 3.08047 8.32 2.64047 8.08C2.64047 9.7 3.78047 11.04 5.26047 11.34C4.94047 11.44 4.22047 11.5 3.78047 11.4C4.20047 12.7 5.42047 13.66 6.84047 13.68C5.72047 14.56 4.08047 15.26 1.98047 15.04C3.44047 15.98 5.16047 16.52 7.02047 16.52C13.0605 16.52 16.3405 11.52 16.3405 7.2C16.3405 7.06 16.3405 6.92 16.3205 6.78C17.0005 6.28 17.5605 5.7 17.9805 5.04Z" fill="#EEEEEE"/>
</g>
<defs>
<clipPath id="clip0_471_11926">
<rect width="20" height="20" fill="white"/>
</clipPath>
</defs>
</svg>
