<svg width="20" height="20" viewBox="0 0 20 20" fill="none" xmlns="http://www.w3.org/2000/svg">
<g clip-path="url(#clip0_471_11931)">
<path d="M19.7212 5.23668C19.6162 4.36093 18.7909 3.52117 17.9274 3.40866C12.6618 2.7544 7.33719 2.7544 2.07332 3.40866C1.20909 3.52092 0.383784 4.36093 0.278802 5.23668C-0.0929339 8.44626 -0.0929339 11.5583 0.278802 14.7671C0.383784 15.6429 1.20909 16.4834 2.07332 16.5952C7.33719 17.2494 12.662 17.2494 17.9274 16.5952C18.7909 16.4836 19.6162 15.6429 19.7212 14.7671C20.093 11.5586 20.093 8.44626 19.7212 5.23668ZM8.33321 13.3359V6.66898L13.3333 10.0025L8.33321 13.3359Z" fill="#EEEEEE"/>
</g>
<defs>
<clipPath id="clip0_471_11931">
<rect width="20" height="20" fill="white"/>
</clipPath>
</defs>
</svg>
